<svg style="display: none" xmlns="http://www.w3.org/2000/svg">
    <symbol id="icon-notifications" width="24" height="24" viewBox="0 0 24 24" fill="none">
        <path fill-rule="evenodd" clip-rule="evenodd" d="M6 17H18V13C18 9.68629 15.3137 7 12 7C8.68629 7 6 9.68629 6 13V17Z" stroke="#363837"/>
        <rect x="11" y="5" width="2" height="1" stroke="#363837" stroke-linecap="round" stroke-linejoin="round"/>
        <path d="M7 19H17" stroke="#363837" stroke-linecap="round" stroke-linejoin="round"/>
    </symbol>
    <symbol id="icon-message" width="24" height="24" viewBox="0 0 24 24" fill="none">
        <path d="M5 7.5L12 12.5" stroke="#363837" stroke-linecap="round" stroke-linejoin="round"/>
        <path d="M19 7.5L12 12.5" stroke="#363837" stroke-linecap="round" stroke-linejoin="round"/>
        <path fill-rule="evenodd" clip-rule="evenodd" d="M5 7H19V17H5V7Z" stroke="#363837" stroke-linecap="round" stroke-linejoin="round"/>
    </symbol>
    <symbol id="icon-search" width="24" height="24" viewBox="0 0 24 24" fill="none">
        <path opacity="0.4" fill-rule="evenodd" clip-rule="evenodd" d="M11 17C14.3137 17 17 14.3137 17 11C17 7.68629 14.3137 5 11 5C7.68629 5 5 7.68629 5 11C5 14.3137 7.68629 17 11 17Z" stroke="#363837"/>
        <path opacity="0.4" d="M15.5 15.5L18.6866 18.6866" stroke="#363837" stroke-linecap="round" stroke-linejoin="round"/>
    </symbol>
    <symbol id="icon-like" width="24" height="24" viewBox="0 0 24 24" fill="none">
        <path opacity="0.5" fill-rule="evenodd" clip-rule="evenodd" d="M12.001 19C12.001 19 5.45454 12.9471 4.31981 10.5011C3.18508 8.05507 5.25366 5 7.63914 5C10.0246 5 12.001 7.34142 12.001 7.34142C12.001 7.34142 14.1843 5 16.2927 5C18.401 5 20.9495 7.56199 19.6436 10.5011C18.3378 13.4402 12.001 19 12.001 19Z" stroke="#363837" stroke-linecap="square"/>
    </symbol>
    <symbol id="icon-recipe-save" width="14" height="14" viewBox="0 0 14 14" fill="none">
        <path d="M7.00002 2.91669V11.0834" stroke="#30BE76" stroke-linecap="round" stroke-linejoin="round"/>
        <path d="M2.91663 6.99998H11.0833" stroke="#30BE76" stroke-linecap="round" stroke-linejoin="round"/>
    </symbol>
</svg>